<?xml version="1.0" encoding="UTF-8" standalone="no"?>
<svg
   width="70"
   height="40"
   viewBox="0 0 70 40"
   version="1.1"
   id="svg1"
   sodipodi:docname="+5V.svg"
   inkscape:version="1.4.3 (0d15f75, 2025-12-25)"
   xmlns:inkscape="http://www.inkscape.org/namespaces/inkscape"
   xmlns:sodipodi="http://sodipodi.sourceforge.net/DTD/sodipodi-0.dtd"
   xmlns="http://www.w3.org/2000/svg"
   xmlns:svg="http://www.w3.org/2000/svg">
  <defs
     id="defs1" />
  <sodipodi:namedview
     id="namedview1"
     pagecolor="#505050"
     bordercolor="#eeeeee"
     borderopacity="1"
     inkscape:showpageshadow="0"
     inkscape:pageopacity="0"
     inkscape:pagecheckerboard="0"
     inkscape:deskcolor="#505050"
     inkscape:zoom="12.571429"
     inkscape:cx="35.039773"
     inkscape:cy="20.005682"
     inkscape:window-width="1024"
     inkscape:window-height="1186"
     inkscape:window-x="0"
     inkscape:window-y="31"
     inkscape:window-maximized="0"
     inkscape:current-layer="svg1" />
  <path
     d="M 5.0380859,25.733398 V 21.640625 H 0.91308594 V 18.81543 H 5.0380859 v -4.092774 h 2.75 v 4.092774 h 4.1357421 v 2.825195 H 7.7880859 v 4.092773 z m 8.7871091,-1.783203 3.007813,-0.311523 q 0.128906,1.020508 0.762695,1.62207 0.633789,0.59082 1.460938,0.59082 0.945312,0 1.600586,-0.762695 0.655273,-0.773437 0.655273,-2.320312 0,-1.450196 -0.655273,-2.169922 -0.644532,-0.730469 -1.686524,-0.730469 -1.299805,0 -2.331055,1.149414 l -2.449218,-0.354492 1.546875,-8.196289 h 7.981445 v 2.825195 h -5.693359 l -0.472657,2.674805 q 1.009766,-0.504883 2.0625,-0.504883 2.008789,0 3.405274,1.460938 1.396484,1.460937 1.396484,3.791992 0,1.944336 -1.12793,3.469726 -1.536132,2.083985 -4.264648,2.083985 -2.180664,0 -3.555664,-1.170899 -1.375,-1.170898 -1.643555,-3.147461 z M 30.701172,28 25.072266,12.251953 h 3.448242 l 3.985351,11.655274 3.856446,-11.655274 h 3.373047 L 34.095703,28 Z"
     id="text1"
     style="font-weight:700;font-size:22px;font-family:Arial, Helvetica, sans-serif"
     aria-label="+5V" />
</svg>
