<?xml version="1.0" encoding="UTF-8" standalone="no"?>
<svg
   width="900"
   height="140"
   viewBox="0 0 900 140"
   version="1.1"
   id="svg2"
   sodipodi:docname="1.svg"
   inkscape:version="1.4.3 (0d15f75, 2025-12-25)"
   xmlns:inkscape="http://www.inkscape.org/namespaces/inkscape"
   xmlns:sodipodi="http://sodipodi.sourceforge.net/DTD/sodipodi-0.dtd"
   xmlns="http://www.w3.org/2000/svg"
   xmlns:svg="http://www.w3.org/2000/svg">
  <defs
     id="defs2" />
  <sodipodi:namedview
     id="namedview2"
     pagecolor="#505050"
     bordercolor="#eeeeee"
     borderopacity="1"
     inkscape:showpageshadow="0"
     inkscape:pageopacity="0"
     inkscape:pagecheckerboard="0"
     inkscape:deskcolor="#505050"
     inkscape:zoom="0.97777778"
     inkscape:cx="449.48864"
     inkscape:cy="70.056818"
     inkscape:window-width="1619"
     inkscape:window-height="1186"
     inkscape:window-x="0"
     inkscape:window-y="31"
     inkscape:window-maximized="0"
     inkscape:current-layer="svg2" />
  <g
     fill="black"
     font-family="Arial, Helvetica, sans-serif"
     font-weight="700"
     text-anchor="middle"
     id="g2">
    <path
       d="M 276.36621,58 V 27.935547 h 12.77637 q 4.81933,0 6.99316,0.820312 2.19434,0.799805 3.50684,2.871094 1.3125,2.071289 1.3125,4.737305 0,3.383789 -1.98926,5.598633 -1.98926,2.194336 -5.94727,2.768554 1.96875,1.148438 3.24024,2.522461 1.29199,1.374024 3.46582,4.88086 L 303.39551,58 h -7.25977 l -4.38867,-6.541992 q -2.33789,-3.506836 -3.19922,-4.40918 -0.86133,-0.922851 -1.82519,-1.250976 -0.96387,-0.348633 -3.05567,-0.348633 h -1.23047 V 58 Z m 6.07031,-17.349609 h 4.49121 q 4.36817,0 5.45508,-0.369141 1.08692,-0.369141 1.70215,-1.271484 0.61524,-0.902344 0.61524,-2.25586 0,-1.517578 -0.82032,-2.440429 -0.7998,-0.94336 -2.27636,-1.189454 -0.73829,-0.102539 -4.42969,-0.102539 h -4.73731 z m 25.70215,7.567382 5.90625,-0.574218 q 0.5332,2.973632 2.15332,4.368164 1.64063,1.394531 4.40918,1.394531 2.93262,0 4.40918,-1.230469 1.49707,-1.250976 1.49707,-2.912109 0,-1.066406 -0.63574,-1.804688 -0.61523,-0.758789 -2.17383,-1.3125 -1.0664,-0.36914 -4.86035,-1.3125 -4.88086,-1.209961 -6.84961,-2.973632 -2.76855,-2.481446 -2.76855,-6.049805 0,-2.296875 1.29199,-4.286133 1.3125,-2.009766 3.75293,-3.055664 2.46094,-1.045898 5.92676,-1.045898 5.66015,0 8.51074,2.481445 2.87109,2.481445 3.01465,6.624023 l -6.07032,0.266602 q -0.38964,-2.317383 -1.68164,-3.322266 -1.27148,-1.02539 -3.83496,-1.02539 -2.64551,0 -4.14258,1.086914 -0.96386,0.697265 -0.96386,1.866211 0,1.066406 0.90234,1.825195 1.14844,0.963867 5.57813,2.009766 4.42968,1.045898 6.54199,2.173828 2.13281,1.107422 3.32226,3.055664 1.20996,1.927734 1.20996,4.77832 0,2.583984 -1.43554,4.839844 -1.43555,2.255859 -4.06055,3.363281 -2.625,1.086914 -6.54199,1.086914 -5.70117,0 -8.75684,-2.625 -3.05566,-2.645508 -3.65039,-7.69043 z m 31.85449,1.763672 V 44.21875 h 11.32032 v 5.762695 z M 367.70508,58 V 51.950195 H 355.40039 V 46.905273 L 368.44336,27.8125 h 4.83984 v 19.072266 h 3.73242 v 5.065429 H 373.2832 V 58 Z m 0,-11.115234 V 36.610352 l -6.91113,10.274414 z m 20.00097,-5.106446 q -2.23535,-0.943359 -3.26074,-2.583984 -1.00488,-1.661133 -1.00488,-3.629883 0,-3.363281 2.33789,-5.557617 2.3584,-2.194336 6.68555,-2.194336 4.28613,0 6.64453,2.194336 2.3789,2.194336 2.3789,5.557617 0,2.091797 -1.08691,3.732422 -1.08691,1.620117 -3.05566,2.481445 2.50195,1.004883 3.79394,2.932617 1.3125,1.927735 1.3125,4.450196 0,4.163086 -2.66601,6.767578 -2.64551,2.604492 -7.05469,2.604492 -4.10156,0 -6.8291,-2.15332 -3.21973,-2.542969 -3.21973,-6.972656 0,-2.44043 1.20996,-4.470704 1.20996,-2.050781 3.81445,-3.158203 z m 1.18946,-5.803711 q 0,1.722657 0.96386,2.686524 0.98438,0.963867 2.6045,0.963867 1.64062,0 2.625,-0.963867 0.98437,-0.984375 0.98437,-2.707031 0,-1.620118 -0.98437,-2.583985 -0.96387,-0.984375 -2.56348,-0.984375 -1.66113,0 -2.64551,0.984375 -0.98437,0.984375 -0.98437,2.604492 z m -0.53321,12.878907 q 0,2.378906 1.20997,3.711914 1.23046,1.333007 3.05566,1.333007 1.78418,0 2.95312,-1.271484 1.16895,-1.291992 1.16895,-3.711914 0,-2.112305 -1.18945,-3.383789 -1.18946,-1.291992 -3.01465,-1.291992 -2.11231,0 -3.1582,1.456054 -1.0254,1.456055 -1.0254,3.158204 z m 20.8418,1.415039 5.74219,-0.594727 q 0.24609,1.948242 1.45605,3.09668 1.20996,1.127929 2.78907,1.127929 1.80468,0 3.05566,-1.456054 1.25098,-1.476563 1.25098,-4.429688 0,-2.768554 -1.25098,-4.142578 -1.23047,-1.394531 -3.21973,-1.394531 -2.48144,0 -4.45019,2.194336 l -4.67578,-0.676758 2.95312,-15.647461 h 15.23731 v 5.393555 h -10.86914 l -0.90235,5.106445 q 1.92774,-0.963867 3.9375,-0.963867 3.83496,0 6.50098,2.789062 2.66601,2.789063 2.66601,7.239258 0,3.711914 -2.15332,6.624024 -2.93261,3.978515 -8.1416,3.978515 -4.16308,0 -6.78808,-2.235351 -2.625,-2.235352 -3.1377,-6.008789 z m 42.23731,-22.333008 h 12.01757 q 3.56836,0 5.31153,0.307617 1.76367,0.287109 3.13769,1.230469 1.39453,0.943359 2.31739,2.522461 0.92285,1.558593 0.92285,3.506836 0,2.112304 -1.14844,3.875976 -1.12793,1.763672 -3.07617,2.645508 2.74804,0.799805 4.22461,2.727539 1.47656,1.927734 1.47656,4.532227 0,2.050781 -0.96387,3.999023 -0.94336,1.927734 -2.60449,3.09668 -1.64062,1.148437 -4.06055,1.415039 Q 467.47852,57.958984 461.6748,58 h -10.23339 z m 6.07031,5.003906 v 6.952149 h 3.97851 q 3.54786,0 4.40918,-0.10254 1.5586,-0.18457 2.44043,-1.066406 0.90235,-0.902344 0.90235,-2.358398 0,-1.394531 -0.7793,-2.25586 -0.75879,-0.881836 -2.27637,-1.066406 -0.90234,-0.102539 -5.18847,-0.102539 z m 0,11.956055 v 8.039062 h 5.61914 q 3.28125,0 4.16309,-0.18457 1.35351,-0.246094 2.19433,-1.189453 0.86133,-0.963867 0.86133,-2.563477 0,-1.353515 -0.65625,-2.296875 -0.65625,-0.943359 -1.90723,-1.374023 -1.23047,-0.430664 -5.37304,-0.430664 z M 484.77246,58 V 27.935547 h 12.77637 q 4.81933,0 6.99316,0.820312 2.19434,0.799805 3.50684,2.871094 1.3125,2.071289 1.3125,4.737305 0,3.383789 -1.98926,5.598633 -1.98926,2.194336 -5.94727,2.768554 1.96875,1.148438 3.24024,2.522461 1.29199,1.374024 3.46582,4.88086 L 511.80176,58 h -7.25977 l -4.38867,-6.541992 q -2.33789,-3.506836 -3.19922,-4.40918 -0.86133,-0.922851 -1.82519,-1.250976 -0.96387,-0.348633 -3.05567,-0.348633 h -1.23047 V 58 Z m 6.07031,-17.349609 h 4.49121 q 4.36817,0 5.45508,-0.369141 1.08692,-0.369141 1.70215,-1.271484 0.61524,-0.902344 0.61524,-2.25586 0,-1.517578 -0.82032,-2.440429 -0.7998,-0.94336 -2.27636,-1.189454 -0.73829,-0.102539 -4.42969,-0.102539 h -4.73731 z M 517.89844,58 V 27.935547 h 6.07031 V 58 Z m 14.83301,-30.064453 h 11.09472 q 3.75293,0 5.72168,0.574219 2.64551,0.779296 4.53223,2.768554 1.88672,1.989258 2.87109,4.88086 0.98438,2.871093 0.98438,7.095703 0,3.711914 -0.92285,6.398437 -1.12793,3.28125 -3.21973,5.311524 -1.5791,1.538086 -4.26563,2.399414 Q 547.51758,58 544.1543,58 h -11.42285 z m 6.07031,5.085937 V 52.93457 h 4.53222 q 2.54297,0 3.6709,-0.287109 1.47657,-0.369141 2.44043,-1.250977 0.98438,-0.881836 1.59961,-2.891601 0.61524,-2.030274 0.61524,-5.516602 0,-3.486328 -0.61524,-5.352539 -0.61523,-1.866211 -1.72265,-2.912109 -1.10743,-1.045899 -2.80957,-1.415039 -1.27149,-0.28711 -4.9834,-0.28711 z m 41.26758,13.924805 v -5.06543 h 13.08398 v 11.976563 q -1.90723,1.845703 -5.53711,3.260742 -3.60937,1.394531 -7.32129,1.394531 -4.7168,0 -8.22363,-1.96875 -3.50684,-1.989258 -5.27051,-5.660156 -1.76367,-3.691406 -1.76367,-8.018555 0,-4.696289 1.96875,-8.346679 1.96875,-3.650391 5.76269,-5.598633 2.89161,-1.49707 7.19825,-1.49707 5.59863,0 8.73632,2.358398 3.15821,2.337891 4.06055,6.480469 l -6.0293,1.127929 q -0.63574,-2.214843 -2.39941,-3.486328 -1.74316,-1.291992 -4.36816,-1.291992 -3.97852,0 -6.33692,2.522461 -2.33789,2.522461 -2.33789,7.485352 0,5.352539 2.37891,8.039062 2.3789,2.666016 6.23437,2.666016 1.90723,0 3.81446,-0.738282 1.92773,-0.758789 3.30175,-1.825195 V 46.946289 Z M 601.75195,58 V 27.935547 h 22.292 v 5.085937 h -16.22168 v 6.665039 h 15.09375 v 5.06543 h -15.09375 v 8.182617 h 16.79589 V 58 Z"
       id="text1"
       style="font-size:42px;letter-spacing:3"
       aria-label="RS-485 BRIDGE" />
    <path
       d="M 407.5293,105 V 87.820312 h 7.30078 q 2.7539,0 3.99609,0.46875 1.25391,0.457032 2.00391,1.640625 0.75,1.183594 0.75,2.707032 0,1.933593 -1.13672,3.199218 -1.13672,1.253907 -3.39844,1.582032 1.125,0.65625 1.85156,1.441406 0.73829,0.785156 1.98047,2.789065 L 422.97461,105 h -4.14844 l -2.50781,-3.73828 q -1.33594,-2.003908 -1.82813,-2.519533 -0.49218,-0.527343 -1.04296,-0.714843 -0.55079,-0.199219 -1.7461,-0.199219 h -0.70312 V 105 Z m 3.46875,-9.914063 h 2.5664 q 2.4961,0 3.11719,-0.210937 0.62109,-0.210938 0.97266,-0.726563 0.35156,-0.515625 0.35156,-1.289062 0,-0.867188 -0.46875,-1.394531 -0.45703,-0.539063 -1.30078,-0.679688 -0.42188,-0.05859 -2.53125,-0.05859 h -2.70703 z M 428.84961,105 V 87.820312 h 12.73828 v 2.90625 h -9.26953 v 3.808594 h 8.625 v 2.894531 h -8.625 v 4.675783 h 9.59766 V 105 Z m 24.39062,0 -6.14062,-17.179688 h 3.76172 l 4.34765,12.714848 4.20704,-12.714848 h 3.67968 L 456.94336,105 Z m 40.89454,0 h -3.77344 l -1.5,-3.90234 h -6.86719 L 480.57617,105 h -3.67969 l 6.69141,-17.179688 h 3.66797 z m -6.38672,-6.796875 -2.36719,-6.375 -2.32031,6.375 z"
       id="text2"
       style="font-size:24px;letter-spacing:4"
       aria-label="REV A" />
  </g>
</svg>
