<?xml version="1.0" encoding="UTF-8" standalone="no"?>
<svg
   width="110"
   height="40"
   viewBox="0 0 110 40"
   version="1.1"
   id="svg1"
   sodipodi:docname="DE_A.svg"
   inkscape:version="1.4.3 (0d15f75, 2025-12-25)"
   xmlns:inkscape="http://www.inkscape.org/namespaces/inkscape"
   xmlns:sodipodi="http://sodipodi.sourceforge.net/DTD/sodipodi-0.dtd"
   xmlns="http://www.w3.org/2000/svg"
   xmlns:svg="http://www.w3.org/2000/svg">
  <defs
     id="defs1" />
  <sodipodi:namedview
     id="namedview1"
     pagecolor="#505050"
     bordercolor="#eeeeee"
     borderopacity="1"
     inkscape:showpageshadow="0"
     inkscape:pageopacity="0"
     inkscape:pagecheckerboard="0"
     inkscape:deskcolor="#505050"
     inkscape:zoom="8"
     inkscape:cx="54.9375"
     inkscape:cy="19.9375"
     inkscape:window-width="1863"
     inkscape:window-height="1186"
     inkscape:window-x="0"
     inkscape:window-y="31"
     inkscape:window-maximized="0"
     inkscape:current-layer="svg1" />
  <path
     d="m 24.339844,10.751953 h 5.811523 q 1.96582,0 2.99707,0.300781 1.385743,0.408204 2.374024,1.450196 0.988281,1.041992 1.503906,2.55664 0.515625,1.503907 0.515625,3.716797 0,1.944336 -0.483398,3.351563 -0.590821,1.71875 -1.686524,2.782226 -0.827148,0.805664 -2.234375,1.256836 Q 32.084961,26.5 30.323242,26.5 h -5.983398 z m 3.179687,2.664063 V 23.84668 h 2.374024 q 1.332031,0 1.922851,-0.150391 0.773438,-0.193359 1.278321,-0.655273 0.515625,-0.461914 0.83789,-1.514649 0.322266,-1.063476 0.322266,-2.889648 0,-1.826172 -0.322266,-2.803711 -0.322265,-0.977539 -0.902344,-1.525391 -0.580078,-0.547851 -1.471679,-0.741211 -0.666016,-0.15039 -2.610352,-0.15039 z M 40.238281,26.5 V 10.751953 h 11.676758 v 2.664063 h -8.49707 v 3.491211 h 7.90625 v 2.65332 h -7.90625 V 23.84668 H 52.21582 V 26.5 Z m 12.869141,4.350586 v -1.955078 h 12.546875 v 1.955078 z M 81.348633,26.5 h -3.458985 l -1.375,-3.577148 H 70.219727 L 68.919922,26.5 h -3.373047 l 6.133789,-15.748047 h 3.362305 z m -5.854492,-6.230469 -2.169922,-5.84375 -2.126953,5.84375 z"
     id="text1"
     style="font-weight:700;font-size:22px;font-family:Arial, Helvetica, sans-serif"
     aria-label="DE_A" />
</svg>
