<?xml version="1.0" encoding="UTF-8" standalone="no"?>
<svg
   width="110"
   height="40"
   viewBox="0 0 110 40"
   version="1.1"
   id="svg1"
   sodipodi:docname="DE_B.svg"
   inkscape:version="1.4.3 (0d15f75, 2025-12-25)"
   xmlns:inkscape="http://www.inkscape.org/namespaces/inkscape"
   xmlns:sodipodi="http://sodipodi.sourceforge.net/DTD/sodipodi-0.dtd"
   xmlns="http://www.w3.org/2000/svg"
   xmlns:svg="http://www.w3.org/2000/svg">
  <defs
     id="defs1" />
  <sodipodi:namedview
     id="namedview1"
     pagecolor="#505050"
     bordercolor="#eeeeee"
     borderopacity="1"
     inkscape:showpageshadow="0"
     inkscape:pageopacity="0"
     inkscape:pagecheckerboard="0"
     inkscape:deskcolor="#505050"
     inkscape:zoom="8"
     inkscape:cx="55"
     inkscape:cy="19.9375"
     inkscape:window-width="1856"
     inkscape:window-height="1186"
     inkscape:window-x="0"
     inkscape:window-y="31"
     inkscape:window-maximized="0"
     inkscape:current-layer="svg1" />
  <path
     d="m 24.089844,10.376953 h 5.811523 q 1.96582,0 2.99707,0.300781 1.385743,0.408204 2.374024,1.450196 0.988281,1.041992 1.503906,2.55664 0.515625,1.503907 0.515625,3.716797 0,1.944336 -0.483398,3.351563 -0.590821,1.71875 -1.686524,2.782226 -0.827148,0.805664 -2.234375,1.256836 Q 31.834961,26.125 30.073242,26.125 h -5.983398 z m 3.179687,2.664063 V 23.47168 h 2.374024 q 1.332031,0 1.922851,-0.150391 0.773438,-0.193359 1.278321,-0.655273 0.515625,-0.461914 0.83789,-1.514649 0.322266,-1.063476 0.322266,-2.889648 0,-1.826172 -0.322266,-2.803711 -0.322265,-0.977539 -0.902344,-1.525391 -0.580078,-0.547851 -1.471679,-0.741211 -0.666016,-0.15039 -2.610352,-0.15039 z M 39.988281,26.125 V 10.376953 h 11.676758 v 2.664063 h -8.49707 v 3.491211 h 7.90625 v 2.65332 h -7.90625 V 23.47168 H 51.96582 V 26.125 Z m 12.869141,4.350586 v -1.955078 h 12.546875 v 1.955078 z M 66.908203,10.376953 h 6.294922 q 1.869141,0 2.782227,0.161133 0.923828,0.150391 1.643554,0.644531 0.730469,0.494141 1.213867,1.321289 0.483399,0.816407 0.483399,1.836914 0,1.106446 -0.601563,2.030274 -0.59082,0.923828 -1.611328,1.385742 1.439453,0.418945 2.212891,1.428711 0.773437,1.009765 0.773437,2.374023 0,1.074219 -0.504882,2.094727 -0.494141,1.009765 -1.364258,1.62207 -0.859375,0.601563 -2.126953,0.741211 -0.794922,0.08594 -3.834961,0.107422 h -5.360352 z m 3.179688,2.621094 v 3.641601 h 2.083984 q 1.858398,0 2.30957,-0.05371 0.816407,-0.09668 1.278321,-0.558593 0.472656,-0.472656 0.472656,-1.235352 0,-0.730469 -0.408203,-1.18164 -0.397461,-0.461914 -1.192383,-0.558594 -0.472656,-0.05371 -2.717774,-0.05371 z m 0,6.262695 v 4.210938 h 2.943359 q 1.71875,0 2.180664,-0.09668 0.708984,-0.128906 1.149414,-0.623047 0.451172,-0.504883 0.451172,-1.342773 0,-0.708985 -0.34375,-1.203125 -0.34375,-0.494141 -0.999023,-0.719727 -0.644532,-0.225586 -2.814454,-0.225586 z"
     id="text1"
     style="font-weight:700;font-size:22px;font-family:Arial, Helvetica, sans-serif"
     aria-label="DE_B" />
</svg>
