<?xml version="1.0" encoding="UTF-8" standalone="no"?>
<svg
   width="120"
   height="40"
   viewBox="0 0 120 40"
   version="1.1"
   id="svg1"
   sodipodi:docname="DEBUG.svg"
   inkscape:version="1.4.3 (0d15f75, 2025-12-25)"
   xmlns:inkscape="http://www.inkscape.org/namespaces/inkscape"
   xmlns:sodipodi="http://sodipodi.sourceforge.net/DTD/sodipodi-0.dtd"
   xmlns="http://www.w3.org/2000/svg"
   xmlns:svg="http://www.w3.org/2000/svg">
  <defs
     id="defs1" />
  <sodipodi:namedview
     id="namedview1"
     pagecolor="#505050"
     bordercolor="#eeeeee"
     borderopacity="1"
     inkscape:showpageshadow="0"
     inkscape:pageopacity="0"
     inkscape:pagecheckerboard="0"
     inkscape:deskcolor="#505050"
     inkscape:zoom="7.3333333"
     inkscape:cx="59.931818"
     inkscape:cy="19.977273"
     inkscape:window-width="1024"
     inkscape:window-height="1186"
     inkscape:window-x="0"
     inkscape:window-y="31"
     inkscape:window-maximized="0"
     inkscape:current-layer="svg1" />
  <path
     d="m 1.734375,10.820313 h 6.3398438 q 2.1445312,0 3.2695312,0.328125 1.511719,0.445312 2.589844,1.582031 1.078125,1.136719 1.640625,2.789062 0.5625,1.640625 0.5625,4.054688 0,2.121093 -0.527344,3.65625 -0.644531,1.875 -1.839844,3.035156 -0.902343,0.878906 -2.4375,1.371094 Q 10.183594,28 8.2617188,28 H 1.734375 Z m 3.46875,2.90625 v 11.378906 h 2.5898437 q 1.4531251,0 2.0976563,-0.164063 0.84375,-0.210937 1.394531,-0.714844 0.5625,-0.503906 0.914063,-1.652343 0.351562,-1.160157 0.351562,-3.152344 0,-1.992188 -0.351562,-3.058594 Q 11.847656,15.296875 11.214844,14.699219 10.582031,14.101563 9.609375,13.890625 8.8828125,13.726563 6.7617187,13.726563 Z M 19.078125,28 V 10.820313 h 12.738281 v 2.90625 h -9.269531 v 3.808593 h 8.625 v 2.894531 h -8.625 v 4.675782 h 9.597656 V 28 Z M 35.097656,10.820313 h 6.867188 q 2.039062,0 3.035156,0.175781 1.007812,0.164062 1.792969,0.703125 0.796875,0.539062 1.324218,1.441406 0.527344,0.890625 0.527344,2.003906 0,1.207031 -0.65625,2.214844 -0.644531,1.007812 -1.757812,1.511719 1.570312,0.457031 2.414062,1.558593 0.84375,1.101563 0.84375,2.589844 0,1.171875 -0.550781,2.285156 -0.539063,1.101563 -1.488281,1.769532 -0.9375,0.65625 -2.320313,0.808593 Q 44.261719,27.976562 40.945312,28 h -5.847656 z m 3.46875,2.859375 v 3.972656 h 2.273438 q 2.027343,0 2.519531,-0.05859 0.890625,-0.105469 1.394531,-0.609375 0.515625,-0.515625 0.515625,-1.347656 0,-0.796875 -0.445312,-1.289063 -0.433594,-0.503906 -1.300782,-0.609375 -0.515625,-0.05859 -2.964843,-0.05859 z m 0,6.832031 v 4.59375 h 3.210938 q 1.875,0 2.378906,-0.105469 0.773437,-0.140625 1.253906,-0.679688 0.492188,-0.550781 0.492188,-1.464843 0,-0.773438 -0.375,-1.3125 -0.375,-0.539063 -1.089844,-0.785157 -0.703125,-0.246093 -3.070313,-0.246093 z m 13.828125,-9.691406 h 3.46875 V 20.125 q 0,2.214844 0.128906,2.871094 0.222657,1.054687 1.054688,1.699218 0.84375,0.632813 2.296875,0.632813 1.476562,0 2.226562,-0.597656 0.75,-0.609375 0.902344,-1.488282 Q 62.625,22.363281 62.625,20.324219 v -9.503906 h 3.46875 v 9.023437 q 0,3.09375 -0.28125,4.371094 -0.28125,1.277343 -1.042969,2.15625 -0.75,0.878906 -2.015625,1.40625 -1.265625,0.515625 -3.304687,0.515625 -2.460938,0 -3.738282,-0.5625 Q 54.445312,27.15625 53.707031,26.253906 52.96875,25.339844 52.734375,24.34375 52.394531,22.867187 52.394531,19.984375 Z m 25.347656,10.863281 v -2.894532 h 7.476563 v 6.84375 q -1.089844,1.054688 -3.164063,1.863282 -2.0625,0.796875 -4.183593,0.796875 -2.695313,0 -4.699219,-1.125 -2.003906,-1.136719 -3.011719,-3.234375 -1.007812,-2.109375 -1.007812,-4.582032 0,-2.683593 1.125,-4.769531 1.125,-2.085937 3.292968,-3.199218 1.652344,-0.855469 4.113282,-0.855469 3.199218,0 4.992187,1.347656 1.804688,1.335938 2.320313,3.703125 l -3.445313,0.644531 q -0.363281,-1.265625 -1.371094,-1.992187 -0.996093,-0.738281 -2.496093,-0.738281 -2.273438,0 -3.621094,1.441406 -1.335938,1.441406 -1.335938,4.277343 0,3.058594 1.359375,4.59375 1.359375,1.523438 3.5625,1.523438 1.089844,0 2.179688,-0.421875 1.101562,-0.433594 1.886719,-1.042969 v -2.179687 z"
     id="text1"
     style="font-weight:700;font-size:24px;font-family:Arial, Helvetica, sans-serif"
     aria-label="DEBUG" />
</svg>
