<?xml version="1.0" encoding="UTF-8" standalone="no"?>
<svg
   width="240"
   height="220"
   viewBox="0 0 240 220"
   version="1.1"
   id="svg1"
   sodipodi:docname="ESD.svg"
   inkscape:version="1.4.3 (0d15f75, 2025-12-25)"
   xmlns:inkscape="http://www.inkscape.org/namespaces/inkscape"
   xmlns:sodipodi="http://sodipodi.sourceforge.net/DTD/sodipodi-0.dtd"
   xmlns="http://www.w3.org/2000/svg"
   xmlns:svg="http://www.w3.org/2000/svg">
  <defs
     id="defs1" />
  <sodipodi:namedview
     id="namedview1"
     pagecolor="#505050"
     bordercolor="#eeeeee"
     borderopacity="1"
     inkscape:showpageshadow="0"
     inkscape:pageopacity="0"
     inkscape:pagecheckerboard="0"
     inkscape:deskcolor="#505050"
     inkscape:zoom="3.6666667"
     inkscape:cx="120"
     inkscape:cy="88.227273"
     inkscape:window-width="1024"
     inkscape:window-height="1186"
     inkscape:window-x="0"
     inkscape:window-y="31"
     inkscape:window-maximized="0"
     inkscape:current-layer="svg1" />
  <path
     style="baseline-shift:baseline;display:inline;overflow:visible;vector-effect:none;stroke-linejoin:round;enable-background:accumulate;stop-color:#000000;stop-opacity:1;opacity:1"
     d="m 120,14 a 6.0006,6.0006 0 0 0 -5.20898,3.023437 L 14.791016,192.02344 A 6.0006,6.0006 0 0 0 20,201 h 200 a 6.0006,6.0006 0 0 0 5.20898,-8.97656 l -100,-175.000003 A 6.0006,6.0006 0 0 0 120,14 Z M 120,32.091797 209.66211,189 H 30.337891 Z"
     id="polygon1" />
  <path
     d="m 70.523798,116.08593 h 28.453125 v 7.33594 h -17.8125 v 5.46094 H 97.68786 v 7.00781 H 81.164423 v 6.77344 h 18.328125 v 7.78125 h -28.96875 z m 33.835942,22.99219 10.10156,-0.63281 q 0.32812,2.46094 1.33594,3.75 1.64062,2.08594 4.6875,2.08594 2.27343,0 3.49218,-1.05469 1.24219,-1.07813 1.24219,-2.48438 0,-1.33593 -1.17187,-2.39062 -1.17188,-1.05469 -5.4375,-1.99219 -6.98438,-1.57031 -9.96094,-4.17187 -3,-2.60157 -3,-6.63282 0,-2.64843 1.52344,-4.99218 1.54687,-2.36719 4.61718,-3.70313 3.09375,-1.35937 8.46094,-1.35937 6.58594,0 10.03125,2.46093 3.46875,2.4375 4.125,7.78125 l -10.00781,0.58594 q -0.39844,-2.32031 -1.6875,-3.375 -1.26563,-1.05469 -3.51563,-1.05469 -1.85156,0 -2.78906,0.79688 -0.9375,0.77344 -0.9375,1.89844 0,0.82031 0.77344,1.47656 0.75,0.67969 3.5625,1.26562 6.96094,1.5 9.96094,3.04688 3.02343,1.52344 4.38281,3.79687 1.38281,2.27344 1.38281,5.08594 0,3.30469 -1.82812,6.09375 -1.82813,2.78906 -5.10938,4.24219 -3.28125,1.42969 -8.27344,1.42969 -8.76562,0 -12.14062,-3.375 -3.375,-3.375 -3.82031,-8.57813 z m 37.65625,-22.99219 h 15.77343 q 4.66407,0 7.52344,1.26563 2.88281,1.26562 4.75781,3.63281 1.875,2.36719 2.71875,5.50781 0.84375,3.14063 0.84375,6.65625 0,5.50782 -1.26562,8.55469 -1.24219,3.02344 -3.46875,5.08594 -2.22656,2.03906 -4.78125,2.71875 -3.49219,0.9375 -6.32813,0.9375 h -15.77343 z m 10.61718,7.78125 v 18.77344 h 2.60157 q 3.32812,0 4.73437,-0.72656 1.40625,-0.75 2.20313,-2.57813 0.79687,-1.85156 0.79687,-5.97656 0,-5.46094 -1.78125,-7.47656 -1.78125,-2.01563 -5.90625,-2.01563 z"
     id="text1"
     style="font-weight:900;font-size:48px;font-family:'Arial Black', Arial, Helvetica, sans-serif;letter-spacing:1;dominant-baseline:middle;text-anchor:middle"
     aria-label="ESD" />
</svg>
