<?xml version="1.0" encoding="UTF-8" standalone="no"?>
<svg
   width="420"
   height="60"
   viewBox="0 0 420 60"
   version="1.1"
   id="svg1"
   sodipodi:docname="IDK.svg"
   inkscape:version="1.4.3 (0d15f75, 2025-12-25)"
   xmlns:inkscape="http://www.inkscape.org/namespaces/inkscape"
   xmlns:sodipodi="http://sodipodi.sourceforge.net/DTD/sodipodi-0.dtd"
   xmlns="http://www.w3.org/2000/svg"
   xmlns:svg="http://www.w3.org/2000/svg">
  <defs
     id="defs1" />
  <sodipodi:namedview
     id="namedview1"
     pagecolor="#505050"
     bordercolor="#eeeeee"
     borderopacity="1"
     inkscape:showpageshadow="0"
     inkscape:pageopacity="0"
     inkscape:pagecheckerboard="0"
     inkscape:deskcolor="#505050"
     inkscape:zoom="2.0952381"
     inkscape:cx="210"
     inkscape:cy="29.829545"
     inkscape:window-width="1876"
     inkscape:window-height="1186"
     inkscape:window-x="0"
     inkscape:window-y="31"
     inkscape:window-maximized="0"
     inkscape:current-layer="svg1" />
  <g
     fill="#000000"
     font-family="Arial, Helvetica, sans-serif"
     font-weight="700"
     id="g1"
     transform="translate(35.318182)">
    <path
       d="M 2.0507813,40 V 19.957031 h 8.5175777 q 3.212891,0 4.66211,0.546875 1.46289,0.533203 2.33789,1.914063 0.875,1.380859 0.875,3.158203 0,2.255859 -1.326172,3.732422 -1.326171,1.46289 -3.964843,1.845703 1.3125,0.765625 2.160156,1.68164 0.861328,0.916016 2.310547,3.253907 L 20.070312,40 H 15.230469 L 12.304688,35.638672 Q 10.746094,33.300781 10.171875,32.699219 9.5976563,32.083984 8.9550781,31.865234 8.3125,31.632812 6.9179687,31.632812 H 6.0976562 V 40 Z M 6.0976562,28.433594 h 2.9941407 q 2.9121091,0 3.6367191,-0.246094 0.724609,-0.246094 1.134765,-0.847656 0.410157,-0.601563 0.410157,-1.503907 0,-1.011718 -0.546875,-1.626953 -0.533204,-0.628906 -1.517579,-0.792968 -0.492187,-0.06836 -2.9531246,-0.06836 H 6.0976562 Z m 17.1347658,5.044922 3.9375,-0.382813 q 0.355469,1.982422 1.435547,2.912109 1.09375,0.929688 2.939453,0.929688 1.955078,0 2.939453,-0.820313 0.998047,-0.833984 0.998047,-1.941406 0,-0.710937 -0.423828,-1.203125 -0.410157,-0.505859 -1.449219,-0.875 -0.710938,-0.246094 -3.240234,-0.875 -3.253907,-0.80664 -4.566407,-1.982422 -1.845703,-1.654297 -1.845703,-4.033203 0,-1.53125 0.861328,-2.857422 0.875,-1.339843 2.501953,-2.037109 1.640625,-0.697266 3.951172,-0.697266 3.773438,0 5.673828,1.654297 1.914063,1.654297 2.009766,4.416016 l -4.046875,0.177734 q -0.259766,-1.544922 -1.121094,-2.214844 -0.847656,-0.683593 -2.55664,-0.683593 -1.763672,0 -2.761719,0.724609 -0.642578,0.464844 -0.642578,1.244141 0,0.710937 0.601562,1.216797 0.765625,0.642578 3.71875,1.339843 2.953125,0.697266 4.361328,1.449219 1.421875,0.738281 2.214844,2.037109 0.806641,1.285157 0.806641,3.185547 0,1.722657 -0.957031,3.226563 -0.957032,1.503906 -2.707032,2.242187 -1.75,0.72461 -4.361328,0.72461 -3.800781,0 -5.83789,-1.75 -2.03711,-1.763672 -2.433594,-5.126953 z M 44.46875,34.654297 V 30.8125 h 7.546875 v 3.841797 z M 62.943359,40 V 35.966797 H 54.740234 V 32.603516 L 63.435547,19.875 h 3.226562 v 12.714844 h 2.488282 v 3.376953 H 66.662109 V 40 Z m 0,-7.410156 v -6.84961 l -4.607422,6.84961 z m 13.333985,-3.404297 q -1.490235,-0.628906 -2.173828,-1.722656 -0.669922,-1.107422 -0.669922,-2.419922 0,-2.242188 1.558593,-3.705078 1.572266,-1.462891 4.457032,-1.462891 2.857422,0 4.429687,1.462891 1.585938,1.46289 1.585938,3.705078 0,1.394531 -0.72461,2.488281 -0.724609,1.080078 -2.037109,1.654297 1.667969,0.669922 2.529297,1.955078 0.875,1.285156 0.875,2.966797 0,2.77539 -1.777344,4.511719 -1.763672,1.736328 -4.703125,1.736328 -2.734375,0 -4.552734,-1.435547 -2.146485,-1.695313 -2.146485,-4.648438 0,-1.626953 0.806641,-2.980468 0.806641,-1.367188 2.542969,-2.105469 z m 0.792968,-3.869141 q 0,1.148438 0.642579,1.791016 0.65625,0.642578 1.736328,0.642578 1.09375,0 1.75,-0.642578 0.65625,-0.65625 0.65625,-1.804688 0,-1.080078 -0.65625,-1.722656 -0.642578,-0.65625 -1.708985,-0.65625 -1.107422,0 -1.763672,0.65625 -0.65625,0.65625 -0.65625,1.736328 z m -0.355468,8.585938 q 0,1.585937 0.80664,2.474609 0.820313,0.888672 2.03711,0.888672 1.189453,0 1.96875,-0.847656 0.779297,-0.861328 0.779297,-2.47461 0,-1.408203 -0.792969,-2.255859 -0.792969,-0.861328 -2.009766,-0.861328 -1.408203,0 -2.105469,0.970703 -0.683593,0.970703 -0.683593,2.105469 z m 13.894531,0.943359 3.828125,-0.396484 q 0.164062,1.298828 0.970703,2.064453 0.806641,0.751953 1.859375,0.751953 1.203125,0 2.037109,-0.970703 0.833983,-0.984375 0.833983,-2.953125 0,-1.845703 -0.833983,-2.761719 -0.820312,-0.929687 -2.146484,-0.929687 -1.654297,0 -2.966797,1.46289 l -3.117187,-0.451172 1.96875,-10.43164 h 10.158201 v 3.595703 h -7.246092 l -0.601562,3.404297 q 1.285156,-0.642578 2.625,-0.642578 2.556644,0 4.333984,1.859375 1.77734,1.859375 1.77734,4.826171 0,2.47461 -1.43554,4.416016 -1.95508,2.652344 -5.427738,2.652344 -2.77539,0 -4.52539,-1.490235 -1.75,-1.490234 -2.091797,-4.005859 z M 118.76758,19.957031 h 8.01172 q 2.3789,0 3.54101,0.205078 1.17578,0.191407 2.0918,0.820313 0.92969,0.628906 1.54492,1.68164 0.61524,1.039063 0.61524,2.337891 0,1.408203 -0.76563,2.583984 -0.75195,1.175782 -2.05078,1.763672 1.83203,0.533203 2.81641,1.81836 0.98437,1.285156 0.98437,3.021484 0,1.367188 -0.64258,2.666016 -0.6289,1.285156 -1.73633,2.064453 -1.09375,0.765625 -2.70703,0.943359 Q 129.45898,39.972656 125.58984,40 h -6.82226 z m 4.04687,3.335938 v 4.634765 h 2.65235 q 2.36523,0 2.93945,-0.06836 1.03906,-0.123047 1.62695,-0.710938 0.60157,-0.601562 0.60157,-1.572265 0,-0.929688 -0.51954,-1.503906 -0.50586,-0.587891 -1.51757,-0.710938 -0.60157,-0.06836 -3.45899,-0.06836 z m 0,7.970703 v 5.359375 h 3.7461 q 2.1875,0 2.77539,-0.123047 0.90234,-0.164063 1.46289,-0.792969 0.57422,-0.642578 0.57422,-1.708984 0,-0.902344 -0.4375,-1.53125 -0.4375,-0.628906 -1.27149,-0.916016 -0.82031,-0.287109 -3.58203,-0.287109 z M 140.98828,40 V 19.957031 h 8.51758 q 3.21289,0 4.66211,0.546875 1.46289,0.533203 2.33789,1.914063 0.875,1.380859 0.875,3.158203 0,2.255859 -1.32617,3.732422 -1.32617,1.46289 -3.96485,1.845703 1.3125,0.765625 2.16016,1.68164 0.86133,0.916016 2.31055,3.253907 L 159.00781,40 h -4.83984 l -2.92578,-4.361328 q -1.5586,-2.337891 -2.13282,-2.939453 -0.57421,-0.615235 -1.21679,-0.833985 -0.64258,-0.232422 -2.03711,-0.232422 h -0.82031 V 40 Z m 4.04688,-11.566406 h 2.99414 q 2.91211,0 3.63672,-0.246094 0.7246,-0.246094 1.13476,-0.847656 0.41016,-0.601563 0.41016,-1.503907 0,-1.011718 -0.54688,-1.626953 -0.5332,-0.628906 -1.51758,-0.792968 -0.49218,-0.06836 -2.95312,-0.06836 h -3.1582 z M 163.07227,40 V 19.957031 h 4.04687 V 40 Z m 9.88867,-20.042969 h 7.39648 q 2.50195,0 3.81445,0.382813 1.76368,0.519531 3.02149,1.845703 1.25781,1.326172 1.91406,3.253906 0.65625,1.914063 0.65625,4.730469 0,2.474609 -0.61523,4.265625 -0.75196,2.1875 -2.14649,3.541015 -1.05273,1.025391 -2.84375,1.59961 Q 182.81836,40 180.57617,40 h -7.61523 z m 4.04687,3.390625 v 13.275391 h 3.02149 q 1.69531,0 2.44726,-0.191406 0.98438,-0.246094 1.62696,-0.833985 0.65625,-0.58789 1.0664,-1.927734 0.41016,-1.353516 0.41016,-3.677735 0,-2.324218 -0.41016,-3.568359 -0.41015,-1.244141 -1.14844,-1.941406 -0.73828,-0.697266 -1.87304,-0.94336 -0.84766,-0.191406 -3.32227,-0.191406 z m 27.51172,9.283203 v -3.376953 h 8.72266 v 7.984375 q -1.27149,1.230469 -3.69141,2.173828 -2.40625,0.929688 -4.88086,0.929688 -3.14453,0 -5.48242,-1.3125 -2.33789,-1.326172 -3.51367,-3.773438 -1.17578,-2.460937 -1.17578,-5.345703 0,-3.130859 1.3125,-5.564453 1.3125,-2.433594 3.84179,-3.732422 1.92774,-0.998047 4.79883,-0.998047 3.73242,0 5.82422,1.572266 2.10547,1.558594 2.70703,4.320312 l -4.01953,0.751954 q -0.42383,-1.476563 -1.59961,-2.324219 -1.16211,-0.861328 -2.91211,-0.861328 -2.65234,0 -4.22461,1.68164 -1.55859,1.681641 -1.55859,4.990235 0,3.568359 1.58594,5.359375 1.58593,1.777343 4.15625,1.777343 1.27148,0 2.54296,-0.492187 1.28516,-0.505859 2.20118,-1.216797 V 32.630859 Z M 218.97461,40 V 19.957031 h 14.86133 v 3.390625 h -10.81446 v 4.44336 h 10.0625 v 3.376953 h -10.0625 v 5.455078 h 11.19727 V 40 Z m 30.46875,0 V 19.957031 h 8.51758 q 3.21289,0 4.66211,0.546875 1.46289,0.533203 2.33789,1.914063 0.875,1.380859 0.875,3.158203 0,2.255859 -1.32617,3.732422 -1.32618,1.46289 -3.96485,1.845703 1.3125,0.765625 2.16016,1.68164 0.86133,0.916016 2.31054,3.253907 L 267.46289,40 h -4.83984 l -2.92578,-4.361328 q -1.5586,-2.337891 -2.13282,-2.939453 -0.57422,-0.615235 -1.21679,-0.833985 -0.64258,-0.232422 -2.03711,-0.232422 h -0.82032 V 40 Z m 4.04687,-11.566406 h 2.99414 q 2.91211,0 3.63672,-0.246094 0.72461,-0.246094 1.13477,-0.847656 0.41016,-0.601563 0.41016,-1.503907 0,-1.011718 -0.54688,-1.626953 -0.5332,-0.628906 -1.51758,-0.792968 -0.49219,-0.06836 -2.95312,-0.06836 h -3.15821 z M 271.65039,40 V 19.957031 h 14.86133 v 3.390625 h -10.81445 v 4.44336 h 10.0625 v 3.376953 h -10.0625 v 5.455078 h 11.19726 V 40 Z m 25.78906,0 -7.16406,-20.042969 h 4.38867 l 5.07227,14.833985 4.9082,-14.833985 h 4.29297 L 301.75977,40 Z m 42.37696,0 h -4.40235 l -1.75,-4.552734 h -8.01172 L 323.99805,40 h -4.29297 l 7.80664,-20.042969 h 4.2793 z m -7.45118,-7.929688 -2.76171,-7.4375 -2.70704,7.4375 z"
       id="text1"
       style="font-size:28px;letter-spacing:2"
       aria-label="RS-485 BRIDGE REV A" />
  </g>
</svg>
