<?xml version="1.0" encoding="UTF-8" standalone="no"?>
<svg
   width="340"
   height="200"
   viewBox="0 0 340 200"
   version="1.1"
   id="svg1"
   sodipodi:docname="JBS.svg"
   inkscape:version="1.4.3 (0d15f75, 2025-12-25)"
   xmlns:inkscape="http://www.inkscape.org/namespaces/inkscape"
   xmlns:sodipodi="http://sodipodi.sourceforge.net/DTD/sodipodi-0.dtd"
   xmlns="http://www.w3.org/2000/svg"
   xmlns:svg="http://www.w3.org/2000/svg">
  <defs
     id="defs1" />
  <sodipodi:namedview
     id="namedview1"
     pagecolor="#505050"
     bordercolor="#eeeeee"
     borderopacity="1"
     inkscape:showpageshadow="0"
     inkscape:pageopacity="0"
     inkscape:pagecheckerboard="0"
     inkscape:deskcolor="#505050"
     inkscape:zoom="2.5882353"
     inkscape:cx="170"
     inkscape:cy="99.875"
     inkscape:window-width="1024"
     inkscape:window-height="1186"
     inkscape:window-x="0"
     inkscape:window-y="31"
     inkscape:window-maximized="0"
     inkscape:current-layer="svg1" />
  <path
     style="baseline-shift:baseline;display:inline;overflow:visible;vector-effect:none;enable-background:accumulate;stop-color:#000000;stop-opacity:1;opacity:1"
     d="M 62,14 C 35.511783,14 14,35.511783 14,62 v 76 c 0,26.48822 21.511783,48 48,48 h 216 c 26.48822,0 48,-21.51178 48,-48 V 62 C 326,35.511783 304.48822,14 278,14 Z m 0,12 h 216 c 20.04778,0 36,15.952217 36,36 v 76 c 0,20.04778 -15.95222,36 -36,36 H 62 C 41.952217,174 26,158.04778 26,138 V 62 C 26,41.952217 41.952217,26 62,26 Z"
     id="rect1" />
  <path
     d="m 96.458984,69.998047 h 20.394536 v 35.802733 q 0,11.27539 -2.02149,17.16016 -1.97656,5.88476 -8.04101,9.97265 -6.01954,4.08789 -15.453129,4.08789 -9.972657,0 -15.453125,-2.69531 -5.480469,-2.69531 -8.490235,-7.86133 -2.964844,-5.21093 -3.503906,-12.84765 l 19.451172,-2.65039 q 0.04492,4.35742 0.763672,6.46875 0.71875,2.11133 2.425781,3.41406 1.167969,0.85352 3.324219,0.85352 3.414062,0 4.986328,-2.51563 1.617187,-2.56055 1.617187,-8.58008 z m 42.005856,0 h 38.09375 q 9.52344,0 14.59961,4.716797 5.1211,4.716797 5.1211,11.679687 0,5.839844 -3.63868,10.017578 -2.42578,2.785157 -7.09765,4.402341 7.09765,1.70703 10.42187,5.88477 3.36914,4.13281 3.36914,10.42187 0,5.1211 -2.38086,9.20899 -2.38085,4.08789 -6.51367,6.46875 -2.56054,1.48242 -7.72656,2.15625 -6.87305,0.89844 -9.11914,0.89844 h -35.12891 z m 20.5293,25.830078 h 8.84961 q 4.76172,0 6.60352,-1.617188 1.88671,-1.662109 1.88671,-4.761718 0,-2.875 -1.88671,-4.492188 -1.8418,-1.617187 -6.46875,-1.617187 h -8.98438 z m 0,25.875005 h 10.37695 q 5.25586,0 7.41211,-1.8418 2.15625,-1.88672 2.15625,-5.03125 0,-2.91992 -2.15625,-4.67188 -2.11133,-1.79687 -7.45703,-1.79687 h -10.33203 z m 55.4375,-7.63672 19.36133,-1.21289 q 0.6289,4.71679 2.56055,7.1875 3.14453,3.99804 8.98437,3.99804 4.35742,0 6.69336,-2.02148 2.38086,-2.06641 2.38086,-4.76172 0,-2.56055 -2.24609,-4.58203 -2.2461,-2.02149 -10.42188,-3.81836 -13.38672,-3.00977 -19.0918,-7.99609 -5.75,-4.986333 -5.75,-12.712896 0,-5.076172 2.91993,-9.568359 2.96484,-4.537109 8.8496,-7.097656 5.92969,-2.605469 16.2168,-2.605469 12.62305,0 19.22656,4.716797 6.64844,4.671875 7.90625,14.914062 l -19.18164,1.123047 q -0.76367,-4.447265 -3.23437,-6.46875 -2.42578,-2.021484 -6.73828,-2.021484 -3.54883,0 -5.34571,1.527344 -1.79687,1.482421 -1.79687,3.638671 0,1.572266 1.48242,2.830079 1.4375,1.302734 6.82813,2.425781 13.34179,2.875 19.09179,5.839844 5.79492,2.919919 8.40039,7.277339 2.65039,4.35743 2.65039,9.74805 0,6.33399 -3.5039,11.67969 -3.50391,5.3457 -9.79297,8.13086 -6.28906,2.74023 -15.85742,2.74023 -16.80078,0 -23.26953,-6.46875 -6.46875,-6.46875 -7.32227,-16.4414 z"
     id="text1"
     style="font-weight:900;font-size:92px;font-family:'Arial Black', Arial, Helvetica, sans-serif;letter-spacing:8;dominant-baseline:middle;text-anchor:middle"
     aria-label="JBS" />
</svg>
