<?xml version="1.0" encoding="UTF-8" standalone="no"?>
<svg
   width="170"
   height="40"
   viewBox="0 0 170 40"
   version="1.1"
   id="svg1"
   sodipodi:docname="JP1.svg"
   inkscape:version="1.4.3 (0d15f75, 2025-12-25)"
   xmlns:inkscape="http://www.inkscape.org/namespaces/inkscape"
   xmlns:sodipodi="http://sodipodi.sourceforge.net/DTD/sodipodi-0.dtd"
   xmlns="http://www.w3.org/2000/svg"
   xmlns:svg="http://www.w3.org/2000/svg">
  <defs
     id="defs1" />
  <sodipodi:namedview
     id="namedview1"
     pagecolor="#505050"
     bordercolor="#eeeeee"
     borderopacity="1"
     inkscape:showpageshadow="0"
     inkscape:pageopacity="0"
     inkscape:pagecheckerboard="0"
     inkscape:deskcolor="#505050"
     inkscape:zoom="5.1764706"
     inkscape:cx="85.096591"
     inkscape:cy="19.994318"
     inkscape:window-width="1024"
     inkscape:window-height="1186"
     inkscape:window-x="0"
     inkscape:window-y="31"
     inkscape:window-maximized="0"
     inkscape:current-layer="svg1" />
  <path
     d="m 7.2832031,12.251953 h 3.1689449 v 9.96875 q 0,1.955078 -0.34375,3.007813 -0.4619136,1.375 -1.6757808,2.21289 -1.2138672,0.827149 -3.2011719,0.827149 -2.3310547,0 -3.5878906,-1.299805 -1.25683595,-1.310547 -1.26757814,-3.834961 l 2.99707034,-0.34375 q 0.053711,1.353516 0.3974609,1.912109 0.515625,0.848633 1.5683594,0.848633 1.0634765,0 1.5039062,-0.601562 0.4404297,-0.612305 0.4404297,-2.524414 z M 13.835938,28 V 12.251953 h 5.102539 q 2.90039,0 3.78125,0.236328 1.353515,0.354492 2.266601,1.546875 0.913086,1.181641 0.913086,3.061524 0,1.450195 -0.526367,2.438476 -0.526367,0.988281 -1.342774,1.557617 -0.805664,0.558594 -1.643554,0.741211 -1.138672,0.225586 -3.297852,0.225586 H 17.015625 V 28 Z m 3.179687,-13.083984 v 4.46875 h 1.740234 q 1.879883,0 2.513672,-0.247071 0.633789,-0.24707 0.988281,-0.773437 0.365235,-0.526367 0.365235,-1.22461 0,-0.859375 -0.504883,-1.417968 -0.504883,-0.558594 -1.27832,-0.698242 -0.569336,-0.107422 -2.288086,-0.107422 z M 35.567383,28 H 32.548828 V 16.624023 q -1.654297,1.546875 -3.899414,2.288086 v -2.739257 q 1.181641,-0.386719 2.567383,-1.460938 1.385742,-1.084961 1.901367,-2.524414 h 2.449219 z m 16.274414,4.629883 H 49.768555 Q 48.125,30.148437 47.265625,27.473633 46.40625,24.798828 46.40625,22.295898 q 0,-3.104492 1.063477,-5.875976 0.923828,-2.40625 2.341796,-4.436524 h 2.0625 q -1.471679,3.254883 -2.030273,5.542969 -0.547852,2.277344 -0.547852,4.833985 0,1.761718 0.322266,3.609375 0.333008,1.847656 0.902344,3.512695 0.375976,1.095703 1.321289,3.147461 z M 61.241211,28 H 58.222656 V 16.624023 q -1.654297,1.546875 -3.899414,2.288086 v -2.739257 q 1.181641,-0.386719 2.567383,-1.460938 1.385742,-1.084961 1.901367,-2.524414 h 2.449219 z M 75.947266,25.196289 V 28 H 65.366211 q 0.171875,-1.589844 1.03125,-3.007813 0.859375,-1.42871 3.394531,-3.78125 2.041016,-1.901367 2.50293,-2.578125 0.623047,-0.93457 0.623047,-1.847656 0,-1.009765 -0.547852,-1.546875 -0.537109,-0.547851 -1.493164,-0.547851 -0.945312,0 -1.503906,0.569336 -0.558594,0.569336 -0.644531,1.890625 l -3.007813,-0.300782 q 0.268555,-2.492187 1.686524,-3.577148 1.417968,-1.084961 3.544921,-1.084961 2.331055,0 3.663086,1.256836 1.332032,1.256836 1.332032,3.125976 0,1.063477 -0.386719,2.030274 -0.375977,0.956055 -1.203125,2.008789 -0.547852,0.698242 -1.976563,2.008789 -1.428711,1.310547 -1.815429,1.740234 -0.375977,0.429688 -0.612305,0.837891 z M 83.09082,12.1875 q 2.288086,0 3.577149,1.632813 1.536133,1.933593 1.536133,6.413085 0,4.46875 -1.546875,6.423829 -1.278321,1.611328 -3.566407,1.611328 -2.298828,0 -3.706054,-1.761719 -1.407227,-1.772461 -1.407227,-6.305664 0,-4.447266 1.546875,-6.402344 1.27832,-1.611328 3.566406,-1.611328 z m 0,2.50293 q -0.547851,0 -0.977539,0.354492 -0.429687,0.34375 -0.666015,1.246094 -0.311524,1.170898 -0.311524,3.942382 0,2.771485 0.279297,3.813477 0.279297,1.03125 0.698242,1.375 0.429688,0.34375 0.977539,0.34375 0.547852,0 0.977539,-0.34375 0.429688,-0.354492 0.666016,-1.256836 0.311523,-1.160156 0.311523,-3.931641 0,-2.771484 -0.279296,-3.802734 Q 84.487305,15.388672 84.057617,15.044922 83.638672,14.69043 83.09082,14.69043 Z M 90.900391,28 V 12.251953 h 6.692382 q 2.524417,0 3.663087,0.429688 1.14941,0.418945 1.83691,1.503906 0.6875,1.084961 0.6875,2.481445 0,1.772461 -1.04199,2.932617 -1.04199,1.149414 -3.115233,1.450196 1.031253,0.601562 1.697263,1.321289 0.67676,0.719726 1.81543,2.55664 L 105.05859,28 h -3.80273 L 98.957031,24.573242 Q 97.732422,22.736328 97.28125,22.263672 96.830078,21.780273 96.325195,21.608398 95.820312,21.425781 94.724609,21.425781 H 94.080078 V 28 Z m 3.179687,-9.087891 h 2.352539 q 2.288086,0 2.857422,-0.193359 0.569336,-0.193359 0.891601,-0.666016 0.32227,-0.472656 0.32227,-1.18164 0,-0.794922 -0.42969,-1.278321 -0.418947,-0.49414 -1.192384,-0.623046 -0.386719,-0.05371 -2.320313,-0.05371 h -2.481445 z m 11.837892,13.717774 q 0.8916,-1.91211 1.25683,-2.932617 0.36524,-1.020508 0.67676,-2.352539 0.31153,-1.332032 0.46192,-2.524415 0.15039,-1.203125 0.15039,-2.45996 0,-2.556641 -0.54785,-4.833985 -0.54786,-2.288086 -2.01954,-5.542969 h 2.05176 q 1.62207,2.309571 2.51367,4.898438 0.90235,2.588867 0.90235,5.25293 0,2.245117 -0.70899,4.8125 -0.80566,2.878906 -2.65332,5.682617 z"
     id="text1"
     style="font-weight:700;font-size:22px;font-family:Arial, Helvetica, sans-serif"
     aria-label="JP1 (120R)" />
</svg>
