<?xml version="1.0" encoding="UTF-8" standalone="no"?>
<svg
   width="220"
   height="220"
   viewBox="0 0 220 220"
   version="1.1"
   id="svg1"
   sodipodi:docname="NO_PB.svg"
   inkscape:version="1.4.3 (0d15f75, 2025-12-25)"
   xmlns:inkscape="http://www.inkscape.org/namespaces/inkscape"
   xmlns:sodipodi="http://sodipodi.sourceforge.net/DTD/sodipodi-0.dtd"
   xmlns="http://www.w3.org/2000/svg"
   xmlns:svg="http://www.w3.org/2000/svg">
  <defs
     id="defs1" />
  <sodipodi:namedview
     id="namedview1"
     pagecolor="#505050"
     bordercolor="#eeeeee"
     borderopacity="1"
     inkscape:showpageshadow="0"
     inkscape:pageopacity="0"
     inkscape:pagecheckerboard="0"
     inkscape:deskcolor="#505050"
     inkscape:zoom="4"
     inkscape:cx="110"
     inkscape:cy="109.875"
     inkscape:window-width="1024"
     inkscape:window-height="1186"
     inkscape:window-x="0"
     inkscape:window-y="31"
     inkscape:window-maximized="0"
     inkscape:current-layer="svg1" />
  <path
     style="baseline-shift:baseline;display:inline;overflow:visible;vector-effect:none;enable-background:accumulate;stop-color:#000000;stop-opacity:1;opacity:1"
     d="m 110,18 c -50.739129,0 -92,41.260871 -92,92 0,50.73913 41.260871,92 92,92 50.73913,0 92,-41.26087 92,-92 0,-50.739129 -41.26087,-92 -92,-92 z m 0,12 c 44.25385,0 80,35.746152 80,80 0,44.25385 -35.74615,80 -80,80 -44.253848,0 -80,-35.74615 -80,-80 0,-44.253848 35.746152,-80 80,-80 z"
     id="circle1" />
  <g
     id="path1"
     style="opacity:1">
    <path
       style="baseline-shift:baseline;display:inline;overflow:visible;vector-effect:none;stroke-linecap:round;enable-background:accumulate;stop-color:#000000;stop-opacity:1"
       d="M 52,52 168,168"
       id="path2" />
    <path
       style="baseline-shift:baseline;display:inline;overflow:visible;vector-effect:none;stroke-linecap:round;enable-background:accumulate;stop-color:#000000;stop-opacity:1"
       d="m 52,46 a 6,6 0 0 0 -4.242188,1.757812 6,6 0 0 0 0,8.484375 L 163.75781,172.24219 a 6,6 0 0 0 8.48438,0 6,6 0 0 0 0,-8.48438 L 56.242187,47.757812 A 6,6 0 0 0 52,46 Z"
       id="path3" />
  </g>
  <path
     d="m 70.171875,89.78125 h 23.53125 q 7.687505,0 11.500005,3.65625 3.84375,3.65625 3.84375,10.40625 0,6.9375 -4.1875,10.84375 -4.15625,3.90625 -12.718755,3.90625 h -7.75 v 17 h -14.21875 z m 14.21875,19.53125 h 3.46875 q 4.09375,0 5.75,-1.40625 1.65625,-1.4375 1.65625,-3.65625 0,-2.15625 -1.4375,-3.65625 -1.4375,-1.5 -5.40625,-1.5 h -4.03125 z M 115.67188,89.78125 h 12.84374 v 15.875 q 1.90625,-2 4.3125,-3 2.4375,-1 5.375,-1 6.0625,0 10.03125,4.375 3.96875,4.34375 3.96875,12.5 0,5.4375 -1.8125,9.59375 -1.8125,4.125 -5.03125,6.1875 -3.1875,2.03125 -7.09375,2.03125 -3.34375,0 -6.125,-1.4375 -2.09375,-1.125 -4.56249,-4.21875 v 4.90625 h -11.90625 z m 12.74999,29.125 q 0,4.28125 1.59375,6.21875 1.625,1.90625 4.09375,1.90625 2.28125,0 3.8125,-1.875 1.5625,-1.90625 1.5625,-6.375 0,-3.9375 -1.53125,-5.78125 -1.5,-1.84375 -3.65625,-1.84375 -2.59375,0 -4.25,1.9375 -1.625,1.90625 -1.625,5.8125 z"
     id="text1"
     style="font-weight:900;font-size:64px;font-family:'Arial Black', Arial, Helvetica, sans-serif;letter-spacing:0;dominant-baseline:middle;text-anchor:middle"
     aria-label="Pb" />
</svg>
