<?xml version="1.0" encoding="UTF-8" standalone="no"?>
<svg
   width="150"
   height="40"
   viewBox="0 0 150 40"
   version="1.1"
   id="svg1"
   sodipodi:docname="PORT_A.svg"
   inkscape:version="1.4.3 (0d15f75, 2025-12-25)"
   xmlns:inkscape="http://www.inkscape.org/namespaces/inkscape"
   xmlns:sodipodi="http://sodipodi.sourceforge.net/DTD/sodipodi-0.dtd"
   xmlns="http://www.w3.org/2000/svg"
   xmlns:svg="http://www.w3.org/2000/svg">
  <defs
     id="defs1" />
  <sodipodi:namedview
     id="namedview1"
     pagecolor="#505050"
     bordercolor="#eeeeee"
     borderopacity="1"
     inkscape:showpageshadow="0"
     inkscape:pageopacity="0"
     inkscape:pagecheckerboard="0"
     inkscape:deskcolor="#505050"
     inkscape:zoom="5.8666667"
     inkscape:cx="74.914773"
     inkscape:cy="20.028409"
     inkscape:window-width="1024"
     inkscape:window-height="1186"
     inkscape:window-x="0"
     inkscape:window-y="31"
     inkscape:window-maximized="0"
     inkscape:current-layer="svg1" />
  <path
     d="M 1.7460937,28 V 10.820313 H 7.3125 q 3.164063,0 4.125,0.257812 1.476563,0.386719 2.472656,1.6875 0.996094,1.289063 0.996094,3.339844 0,1.582031 -0.574219,2.660156 -0.574218,1.078125 -1.464843,1.699219 -0.878907,0.609375 -1.792969,0.808593 -1.2421877,0.246094 -3.5976565,0.246094 H 5.2148437 V 28 Z m 3.46875,-14.273437 v 4.874999 h 1.8984375 q 2.0507813,0 2.7421876,-0.269531 0.6914062,-0.269531 1.0781252,-0.84375 0.398437,-0.574219 0.398437,-1.335937 0,-0.9375 -0.550781,-1.546875 Q 10.230469,13.996094 9.3867188,13.84375 8.765625,13.726563 6.890625,13.726563 Z m 11.8359373,5.789062 q 0,-2.625 0.785156,-4.40625 0.585938,-1.3125 1.59375,-2.355469 1.019532,-1.042968 2.226563,-1.546875 1.605469,-0.679687 3.703125,-0.679687 3.796875,0 6.070312,2.355469 2.285157,2.355468 2.285157,6.550781 0,4.160156 -2.261719,6.515625 -2.261719,2.34375 -6.046875,2.34375 -3.832031,0 -6.09375,-2.332032 -2.261719,-2.34375 -2.261719,-6.445312 z M 20.625,19.398437 q 0,2.917969 1.347656,4.429688 1.347656,1.5 3.421875,1.5 2.074219,0 3.398438,-1.488281 1.335937,-1.5 1.335937,-4.488282 0,-2.953125 -1.300781,-4.406249 -1.289063,-1.453125 -3.433594,-1.453125 -2.144531,0 -3.457031,1.476562 -1.3125,1.464844 -1.3125,4.429687 z M 36.433594,28 V 10.820313 h 7.300781 q 2.753906,0 3.996094,0.46875 1.253906,0.457031 2.003906,1.640625 0.75,1.183593 0.75,2.707031 0,1.933593 -1.136719,3.199218 -1.136719,1.253907 -3.398437,1.582032 1.125,0.65625 1.851562,1.441406 0.738281,0.785156 1.980469,2.789062 L 51.878906,28 H 47.730469 L 45.222656,24.261719 Q 43.886719,22.257812 43.394531,21.742187 42.902344,21.214844 42.351562,21.027344 41.800781,20.828125 40.605469,20.828125 H 39.902344 V 28 Z m 3.46875,-9.914063 h 2.566406 q 2.496094,0 3.117187,-0.210937 0.621094,-0.210938 0.972657,-0.726563 0.351562,-0.515625 0.351562,-1.289062 0,-0.867187 -0.46875,-1.394531 -0.457031,-0.539063 -1.300781,-0.679688 -0.421875,-0.05859 -2.53125,-0.05859 H 39.902344 Z M 57.621094,28 V 13.726563 h -5.097657 v -2.90625 h 13.652344 v 2.90625 H 61.089844 V 28 Z m 8.824218,4.746094 v -2.132813 h 13.6875 v 2.132813 z M 97.253906,28 h -3.773437 l -1.5,-3.902344 H 85.113281 L 83.695312,28 H 80.015625 L 86.707031,10.820313 H 90.375 Z m -6.386719,-6.796875 -2.367187,-6.375 -2.320313,6.375 z"
     id="text1"
     style="font-weight:700;font-size:24px;font-family:Arial, Helvetica, sans-serif"
     aria-label="PORT_A" />
</svg>
