<?xml version="1.0" encoding="UTF-8" standalone="no"?>
<svg
   width="100"
   height="40"
   viewBox="0 0 100 40"
   version="1.1"
   id="svg1"
   sodipodi:docname="UPDI.svg"
   inkscape:version="1.4.3 (0d15f75, 2025-12-25)"
   xmlns:inkscape="http://www.inkscape.org/namespaces/inkscape"
   xmlns:sodipodi="http://sodipodi.sourceforge.net/DTD/sodipodi-0.dtd"
   xmlns="http://www.w3.org/2000/svg"
   xmlns:svg="http://www.w3.org/2000/svg">
  <defs
     id="defs1" />
  <sodipodi:namedview
     id="namedview1"
     pagecolor="#505050"
     bordercolor="#eeeeee"
     borderopacity="1"
     inkscape:showpageshadow="0"
     inkscape:pageopacity="0"
     inkscape:pagecheckerboard="0"
     inkscape:deskcolor="#505050"
     inkscape:zoom="8.8"
     inkscape:cx="50"
     inkscape:cy="19.943182"
     inkscape:window-width="1889"
     inkscape:window-height="1186"
     inkscape:window-x="0"
     inkscape:window-y="31"
     inkscape:window-maximized="0"
     inkscape:current-layer="svg1" />
  <path
     d="m 24.533648,11.229225 h 3.179687 v 8.529297 q 0,2.030273 0.118164,2.631836 0.204102,0.966797 0.966797,1.557617 0.773437,0.580078 2.105469,0.580078 1.353515,0 2.041015,-0.547851 0.6875,-0.558594 0.827149,-1.364258 0.139648,-0.805664 0.139648,-2.674805 v -8.711914 h 3.179688 v 8.271485 q 0,2.835937 -0.257813,4.006835 -0.257812,1.170899 -0.956054,1.976563 -0.6875,0.805664 -1.847657,1.289062 -1.160156,0.472657 -3.029297,0.472657 -2.255859,0 -3.426757,-0.515625 Q 26.41353,26.203835 25.736773,25.376686 25.060015,24.538795 24.845171,23.62571 24.533648,22.272194 24.533648,19.629616 Z M 40.442827,26.977272 V 11.229225 h 5.102539 q 2.900391,0 3.78125,0.236328 1.353516,0.354492 2.266602,1.546875 0.913086,1.181641 0.913086,3.061524 0,1.450195 -0.526367,2.438476 -0.526368,0.988282 -1.342774,1.557617 -0.805664,0.558594 -1.643555,0.741211 -1.138671,0.225586 -3.297851,0.225586 h -2.073242 v 5.94043 z m 3.179688,-13.083984 v 4.46875 h 1.740234 q 1.879883,0 2.513672,-0.247071 0.633789,-0.24707 0.988281,-0.773437 0.365235,-0.526367 0.365235,-1.22461 0,-0.859375 -0.504883,-1.417968 -0.504883,-0.558594 -1.278321,-0.698242 -0.569335,-0.107422 -2.288085,-0.107422 z m 11.483398,-2.664063 h 5.811524 q 1.96582,0 2.99707,0.300781 1.385742,0.408204 2.374023,1.450196 0.988282,1.041992 1.503907,2.55664 0.515625,1.503907 0.515625,3.716797 0,1.944336 -0.483399,3.351563 -0.59082,1.71875 -1.686523,2.782226 -0.827149,0.805664 -2.234375,1.256836 -1.052735,0.333008 -2.814453,0.333008 h -5.983399 z m 3.179688,2.664063 v 10.430664 h 2.374023 q 1.332031,0 1.922852,-0.150391 0.773437,-0.193359 1.27832,-0.655273 0.515625,-0.461914 0.837891,-1.514649 0.322265,-1.063476 0.322265,-2.889648 0,-1.826172 -0.322265,-2.803711 -0.322266,-0.977539 -0.902344,-1.525391 -0.580078,-0.547851 -1.47168,-0.741211 -0.666015,-0.15039 -2.610351,-0.15039 z m 12.62207,13.083984 V 11.229225 h 3.179687 v 15.748047 z"
     id="text1"
     style="font-weight:700;font-size:22px;font-family:Arial, Helvetica, sans-serif"
     aria-label="UPDI" />
</svg>
